<svg xmlns:xlink="http://www.w3.org/1999/xlink" xmlns="http://www.w3.org/2000/svg" class="css-ze2te4 css-qd6ojx"
  viewBox="0 0 50 56.993767847192586" width="110" height="110">
  <g transform="translate(-6.600832206768336, -2.688147358508433) scale(0.623700643486313)" class="css-nnhqml"
    fill="#7a8499">
    <path xmlns="http://www.w3.org/2000/svg"
      d="M89.9395142,47.5261612c-3.7366638,18.2685776-19.9030838,32.0092392-39.2736893,32.0092392  c-19.3689251,0-35.5285912-13.7406616-39.271656-32.0092392c-0.5273972,2.6113396-0.8108349,5.3151321-0.8108349,8.0796661  c0,22.1405411,17.9456596,40.0841751,40.0824928,40.0841751c22.138855,0,40.0841751-17.943634,40.0841751-40.0841751  C90.75,52.8412933,90.4733124,50.1375008,89.9395142,47.5261612"
      fill="#7a8499"></path>
    <path xmlns="http://www.w3.org/2000/svg"
      d="M32.2457428,14.7985439c-1.8055687,1.1860523-3.5058575,2.5752354-5.0941219,4.1601257  c-12.6733799,12.6764164-12.6733799,33.2286911,0,45.9034195c6.3399067,6.3382111,14.64361,9.5066452,22.9540768,9.5066452  c8.308773,0,16.6158676-3.1684341,22.9527206-9.5066452c1.5848923-1.5831985,2.9686737-3.2936096,4.1550674-5.0944519  c-5.3974686,3.5655785-11.6287155,5.3481979-17.8599586,5.3481979c-8.3054008,0-16.6158638-3.1667404-22.9523849-9.5049515  C25.3129883,44.5210457,23.9288769,27.3993797,32.2457428,14.7985439"
      fill="#7a8499"></path>
    <path xmlns="http://www.w3.org/2000/svg"
      d="M59.3076401,4.3099961C44.57967,4.3116832,32.5126457,16.1182175,32.2622757,30.9035473  C32.0054932,45.8488159,43.9041443,58.16959,58.852787,58.41996c0.161293,0.0033722,0.3195457,0.0067482,0.4811707,0.0067482  c1.7002907,0,3.3675117-0.1582527,4.9756813-0.4599113C40.8727112,30.0863018,65.2257538,4.9592037,65.2257538,4.9592037  c-1.7532654-0.3920889-3.575367-0.61479-5.4436951-0.6458335C59.623806,4.3116832,59.4655533,4.3099961,59.3076401,4.3099961"
      fill="#7a8499"></path>
  </g>
</svg>